<mxfile host="app.diagrams.net" modified="2023-12-15T20:31:00.307Z" agent="Mozilla/5.0 (Windows NT 10.0; Win64; x64) AppleWebKit/537.36 (KHTML, like Gecko) Chrome/120.0.0.0 Safari/537.36" etag="odbkUDbSZRuV6Ch3w6NY" version="22.1.9" type="github">
  <diagram name="Страница — 1" id="MPSTq0b5Kvx3AftmKwGk">
    <mxGraphModel dx="853" dy="442" grid="1" gridSize="10" guides="1" tooltips="1" connect="1" arrows="1" fold="1" page="1" pageScale="1" pageWidth="827" pageHeight="1169" math="0" shadow="0">
      <root>
        <mxCell id="0" />
        <mxCell id="1" parent="0" />
        <object label="start" scan="" id="pAtN9r_TMYRA0wt5PrXm-1">
          <mxCell style="ellipse;whiteSpace=wrap;html=1;aspect=fixed;" vertex="1" parent="1">
            <mxGeometry x="90" y="320" width="80" height="80" as="geometry" />
          </mxCell>
        </object>
        <mxCell id="pAtN9r_TMYRA0wt5PrXm-4" value="NULL&lt;br&gt;(end)" style="ellipse;shape=doubleEllipse;whiteSpace=wrap;html=1;aspect=fixed;" vertex="1" parent="1">
          <mxGeometry x="334" y="530" width="80" height="80" as="geometry" />
        </mxCell>
        <mxCell id="pAtN9r_TMYRA0wt5PrXm-7" value="" style="endArrow=classic;html=1;rounded=0;edgeStyle=orthogonalEdgeStyle;exitX=0.5;exitY=1;exitDx=0;exitDy=0;" edge="1" parent="1" source="pAtN9r_TMYRA0wt5PrXm-1" target="pAtN9r_TMYRA0wt5PrXm-4">
          <mxGeometry width="50" height="50" relative="1" as="geometry">
            <mxPoint x="-20" y="530" as="sourcePoint" />
            <mxPoint x="300" y="680" as="targetPoint" />
            <Array as="points">
              <mxPoint x="120" y="400" />
              <mxPoint x="120" y="570" />
            </Array>
          </mxGeometry>
        </mxCell>
        <mxCell id="pAtN9r_TMYRA0wt5PrXm-21" value="EOF" style="edgeLabel;html=1;align=center;verticalAlign=middle;resizable=0;points=[];" vertex="1" connectable="0" parent="pAtN9r_TMYRA0wt5PrXm-7">
          <mxGeometry x="0.2319" y="-1" relative="1" as="geometry">
            <mxPoint as="offset" />
          </mxGeometry>
        </mxCell>
        <mxCell id="pAtN9r_TMYRA0wt5PrXm-9" value="word" style="ellipse;whiteSpace=wrap;html=1;aspect=fixed;" vertex="1" parent="1">
          <mxGeometry x="374" y="320" width="80" height="80" as="geometry" />
        </mxCell>
        <mxCell id="pAtN9r_TMYRA0wt5PrXm-10" value="" style="endArrow=classic;html=1;rounded=0;edgeStyle=orthogonalEdgeStyle;entryX=0.075;entryY=0.625;entryDx=0;entryDy=0;entryPerimeter=0;exitX=0.981;exitY=0.611;exitDx=0;exitDy=0;exitPerimeter=0;" edge="1" parent="1" source="pAtN9r_TMYRA0wt5PrXm-1" target="pAtN9r_TMYRA0wt5PrXm-9">
          <mxGeometry relative="1" as="geometry">
            <mxPoint x="180" y="370" as="sourcePoint" />
            <mxPoint x="310" y="440" as="targetPoint" />
          </mxGeometry>
        </mxCell>
        <mxCell id="pAtN9r_TMYRA0wt5PrXm-11" value="isalpha" style="edgeLabel;resizable=0;html=1;align=center;verticalAlign=middle;" connectable="0" vertex="1" parent="pAtN9r_TMYRA0wt5PrXm-10">
          <mxGeometry relative="1" as="geometry" />
        </mxCell>
        <mxCell id="pAtN9r_TMYRA0wt5PrXm-22" value="letter_counter += 1" style="shape=callout;whiteSpace=wrap;html=1;perimeter=calloutPerimeter;" vertex="1" parent="1">
          <mxGeometry x="180" y="300" width="110" height="70" as="geometry" />
        </mxCell>
        <mxCell id="pAtN9r_TMYRA0wt5PrXm-26" value="word_type" style="ellipse;whiteSpace=wrap;html=1;aspect=fixed;" vertex="1" parent="1">
          <mxGeometry x="650" y="320" width="90" height="90" as="geometry" />
        </mxCell>
        <mxCell id="pAtN9r_TMYRA0wt5PrXm-27" value="" style="endArrow=classic;html=1;rounded=0;edgeStyle=orthogonalEdgeStyle;exitX=0.979;exitY=0.633;exitDx=0;exitDy=0;exitPerimeter=0;" edge="1" parent="1">
          <mxGeometry relative="1" as="geometry">
            <mxPoint x="478.31999999999994" y="364.64" as="sourcePoint" />
            <mxPoint x="650" y="365" as="targetPoint" />
            <Array as="points">
              <mxPoint x="440" y="365" />
              <mxPoint x="676" y="365" />
            </Array>
          </mxGeometry>
        </mxCell>
        <mxCell id="pAtN9r_TMYRA0wt5PrXm-44" value="isspace" style="edgeLabel;html=1;align=center;verticalAlign=middle;resizable=0;points=[];" vertex="1" connectable="0" parent="pAtN9r_TMYRA0wt5PrXm-27">
          <mxGeometry x="0.0601" y="2" relative="1" as="geometry">
            <mxPoint as="offset" />
          </mxGeometry>
        </mxCell>
        <mxCell id="pAtN9r_TMYRA0wt5PrXm-31" value="" style="endArrow=classic;html=1;rounded=0;edgeStyle=orthogonalEdgeStyle;entryX=0.096;entryY=0.275;entryDx=0;entryDy=0;entryPerimeter=0;" edge="1" parent="1">
          <mxGeometry relative="1" as="geometry">
            <mxPoint x="448" y="338" as="sourcePoint" />
            <mxPoint x="380.67999999999984" y="342" as="targetPoint" />
            <Array as="points">
              <mxPoint x="448" y="338" />
              <mxPoint x="489" y="338" />
              <mxPoint x="489" y="280" />
              <mxPoint x="339" y="280" />
              <mxPoint x="339" y="342" />
            </Array>
          </mxGeometry>
        </mxCell>
        <mxCell id="pAtN9r_TMYRA0wt5PrXm-33" value="isalpha" style="edgeLabel;html=1;align=center;verticalAlign=middle;resizable=0;points=[];" vertex="1" connectable="0" parent="pAtN9r_TMYRA0wt5PrXm-31">
          <mxGeometry x="0.0692" y="-2" relative="1" as="geometry">
            <mxPoint x="-18" y="2" as="offset" />
          </mxGeometry>
        </mxCell>
        <mxCell id="pAtN9r_TMYRA0wt5PrXm-35" value="letter_counter += 1" style="shape=callout;whiteSpace=wrap;html=1;perimeter=calloutPerimeter;" vertex="1" parent="1">
          <mxGeometry x="390" y="210" width="110" height="70" as="geometry" />
        </mxCell>
      </root>
    </mxGraphModel>
  </diagram>
</mxfile>
